<svg id="visual" viewBox="0 0 1920 360" width="1920" height="360" xmlns="http://www.w3.org/2000/svg" xmlns:xlink="http://www.w3.org/1999/xlink" version="1.1"><rect x="0" y="0" width="1920" height="360" fill="#001220"></rect><path d="M0 226L45.7 226.8C91.3 227.7 182.7 229.3 274.2 238C365.7 246.7 457.3 262.3 548.8 258.2C640.3 254 731.7 230 823 230.2C914.3 230.3 1005.7 254.7 1097 257.2C1188.3 259.7 1279.7 240.3 1371.2 227.2C1462.7 214 1554.3 207 1645.8 210.7C1737.3 214.3 1828.7 228.7 1874.3 235.8L1920 243L1920 361L1874.3 361C1828.7 361 1737.3 361 1645.8 361C1554.3 361 1462.7 361 1371.2 361C1279.7 361 1188.3 361 1097 361C1005.7 361 914.3 361 823 361C731.7 361 640.3 361 548.8 361C457.3 361 365.7 361 274.2 361C182.7 361 91.3 361 45.7 361L0 361Z" fill="#F77154"></path></svg>